<svg xmlns="http://www.w3.org/2000/svg" width="711" height="901" fill="none" viewBox="0 0 711 901">
  <path fill="#030340" d="m710.532 355.38-118.905-40.9a236.796 236.796 0 0 0-19.532-61.671 239.057 239.057 0 0 0-34.518-53.165l40.231-66.143-.438.274.438-.712-66.37 40.39c-32.072-27.523-71.501-46.705-114.945-54.187l14.111 41.43a200.358 200.358 0 0 1 33.696 12.885 201.81 201.81 0 0 1 33.624 20.733 204.015 204.015 0 0 1 39.081 39.131c15.059 19.893 26.541 42.653 33.459 67.292a201.574 201.574 0 0 1 7.192 43.163c.073 1.388.146 2.775.201 4.18.091 2.373.11 4.727.11 7.118v.639h152.528l-1.259-.438h1.259l.037-.019ZM199.736 173.252l-66.353-40.408 40.378 66.38c-27.509 32.085-46.694 71.526-54.178 114.964l41.126-14.145v-.037c.11-.401.237-.821.347-1.222a200.084 200.084 0 0 1 18.582-43.748c4.381-7.702 9.291-15.094 14.622-22.121a218.24 218.24 0 0 1 8.232-10.147 203.386 203.386 0 0 1 30.922-29.038c19.842-15.075 42.55-26.574 67.156-33.527 17.469-4.928 35.887-7.575 54.925-7.593V.56l-40.76 118.486c-43.481 7.483-82.927 26.665-115.036 54.206h.037Zm67.009 364.184a201.806 201.806 0 0 1-33.623-20.734 203.981 203.981 0 0 1-39.081-39.13c-15.06-19.894-26.541-42.653-33.46-67.292a201.645 201.645 0 0 1-7.192-43.164 293.542 293.542 0 0 1-.2-4.18c-.092-2.372-.11-4.727-.11-7.118v-.638H.532l1.26.438H.532l118.905 40.901a236.764 236.764 0 0 0 19.532 61.67 239.086 239.086 0 0 0 34.518 53.166l-40.232 66.142.438-.274-.438.712 66.371-40.39c32.072 27.523 71.5 46.705 114.944 54.188l-14.11-41.43a200.362 200.362 0 0 1-33.696-12.886l-.019.019Zm283.61-126.463v.037c-.11.401-.238.821-.347 1.223a200.153 200.153 0 0 1-18.582 43.748c-4.381 7.702-9.292 15.093-14.622 22.12a220.108 220.108 0 0 1-8.232 10.148 203.43 203.43 0 0 1-30.922 29.037c-19.842 15.076-42.55 26.574-67.156 33.528-17.469 4.946-35.887 7.574-54.926 7.592v152.087l40.761-118.487c43.481-7.483 82.927-26.665 115.036-54.206l66.352 40.409-40.377-66.38c27.508-32.085 46.693-71.526 54.177-114.964l-41.126 14.145-.036-.037Z"/>
  <path fill="#030340" d="M333.664 186.138a174.296 174.296 0 0 0-10.606 1.697h-.036c-.694.128-1.387.292-2.081.42-.694.127-1.387.292-2.081.438a186.293 186.293 0 0 0-7.922 1.916c-.219.073-.456.128-.675.183-.566.146-1.15.31-1.716.474-.676.183-1.369.402-2.045.584v223.905l-23.036-34.586-.037-.073-1.46-2.19-20.389-30.607-22.726 32.268-.365.511-11.537 16.408s-.036-.073-.036-.11c-.183-.602-.384-1.204-.566-1.825-.42-1.369-.803-2.756-1.168-4.143-.11-.401-.219-.785-.311-1.168-.128-.474-.237-.967-.347-1.46a8.65 8.65 0 0 1-.182-.73c-.292-1.15-.548-2.3-.785-3.468-.037-.128-.055-.274-.073-.401a82.432 82.432 0 0 1-.602-3.085 146.332 146.332 0 0 1-.53-3.048l-.274-1.807c-.073-.456-.127-.93-.182-1.387-.037-.237-.091-.492-.091-.73-.055-.365-.11-.73-.128-1.095a76.162 76.162 0 0 1-.237-2.007 5.14 5.14 0 0 1-.073-.767c-.238-2.409-.42-4.818-.53-7.264-.055-.785-.073-1.588-.091-2.391 0-.328-.037-.657-.037-.967-.018-1.04-.036-2.062-.036-3.103 0-1.095 0-2.19.036-3.285 0-.292 0-.566.037-.858.036-.949.055-1.861.109-2.792.055-1.041.128-2.081.183-3.103.055-.748.109-1.497.182-2.245 0-.091 0-.182.037-.292.018-.347.055-.675.073-1.004 0-.091.037-.164.037-.237.018-.328.073-.639.109-.949.073-.876.183-1.734.292-2.592.055-.401.11-.821.164-1.222.055-.402.11-.822.183-1.223.036-.183.036-.365.073-.548.073-.511.146-1.058.237-1.569.11-.676.219-1.333.347-2.008.128-.712.256-1.424.402-2.135.018-.165.073-.347.109-.511.091-.566.219-1.114.347-1.643.055-.329.128-.675.201-1.004.091-.438.182-.876.292-1.314.438-1.916.913-3.796 1.46-5.694.128-.493.256-1.004.402-1.479.073-.273.146-.529.237-.803.055-.182.11-.383.183-.565.255-.895.529-1.771.839-2.647v-.036c.347-1.059.694-2.099 1.059-3.14.876-2.5 1.825-4.964 2.848-7.391.127-.329.273-.657.401-.986 0-.036.018-.073.055-.109l-23.328-35.024a150.16 150.16 0 0 0-2.72 4.708 182.113 182.113 0 0 0-2.647 4.91 165.887 165.887 0 0 0-2.373 4.782 143.77 143.77 0 0 0-2.355 5.147 89.646 89.646 0 0 0-1.004 2.336 177.18 177.18 0 0 0-4.308 11.352 86.07 86.07 0 0 0-.675 2.008 211.728 211.728 0 0 0-1.479 4.818c-.2.73-.401 1.46-.62 2.19-.146.511-.292 1.004-.402 1.497a166.225 166.225 0 0 0-2.245 9.49l-.438 2.136c-.146.766-.292 1.514-.42 2.281-.055.292-.11.602-.164.894l-.603 3.651c0 .109-.018.237-.054.346-.183 1.314-.365 2.61-.548 3.943-.292 2.244-.511 4.508-.73 6.771-.055.62-.11 1.259-.146 1.88-.037.328-.055.638-.073.949-.091 1.022-.128 2.026-.183 3.048-.036.857-.073 1.715-.128 2.573a161.142 161.142 0 0 0-.127 6.643c0 1.771.036 3.523.073 5.275 0 .511.036 1.022.054 1.533.019.694.055 1.369.092 2.062.036.603.054 1.187.091 1.771 0 .128 0 .274.036.401.037.73.092 1.46.147 2.191.054.803.127 1.624.2 2.427.073.949.183 1.916.292 2.847.055.566.11 1.113.183 1.661.073.566.128 1.15.201 1.716.109.894.237 1.77.365 2.664.146 1.059.31 2.136.493 3.212.036.183.054.347.091.511.146.895.292 1.771.456 2.665.165.967.347 1.935.548 2.884.328 1.661.694 3.322 1.077 4.982.146.676.31 1.369.493 2.081a141.588 141.588 0 0 0 1.916 7.136c.037.146.092.292.128.438.146.511.292 1.022.456 1.533.347 1.132.694 2.263 1.059 3.395a159.95 159.95 0 0 0 1.059 3.157 172.655 172.655 0 0 0 8.488 20.113c.566 1.15 1.15 2.282 1.752 3.413.311.621.639 1.223.986 1.825a197.145 197.145 0 0 0 3.067 5.421c.346.584.712 1.186 1.058 1.77a56.19 56.19 0 0 0 1.096 1.752 171.693 171.693 0 0 0 4.709 7.155c.456.675.949 1.35 1.424 2.026.474.657.949 1.314 1.46 1.989a181.084 181.084 0 0 0 4.545 5.877c.511.639 1.041 1.277 1.57 1.916l22.179-31.501 15.077-21.427 82.58 114.471v-342.61c-2.5.182-4.983.401-7.465.675-.712.073-1.424.183-2.136.256h-.073Zm193.618 167.016c-.018-.913-.036-1.825-.073-2.738a167.296 167.296 0 0 0-.128-3.084 162.126 162.126 0 0 0-.2-3.03c-.073-1.04-.146-2.081-.238-3.121-.091-.931-.182-1.843-.274-2.756-.109-.985-.2-1.953-.328-2.92l-.383-2.902a71.27 71.27 0 0 0-.311-2.19 171.242 171.242 0 0 0-.712-4.271c-.31-1.661-.62-3.34-.967-4.982-.164-.785-.347-1.57-.511-2.337a163.66 163.66 0 0 0-1.479-6.077c-.255-.931-.493-1.862-.748-2.774-.274-.968-.566-1.953-.858-2.939-.256-.839-.529-1.697-.785-2.537-.292-.894-.584-1.807-.876-2.701a7.683 7.683 0 0 1-.11-.347c-.274-.785-.547-1.551-.821-2.354a166.285 166.285 0 0 0-1.99-5.311c-.365-.949-.748-1.88-1.132-2.829-.346-.803-.693-1.606-1.022-2.391a183.296 183.296 0 0 0-2.318-5.147c-.42-.858-.803-1.697-1.223-2.555-.42-.821-.84-1.661-1.26-2.5a186.247 186.247 0 0 0-2.245-4.235c-.584-1.058-1.186-2.099-1.77-3.157-.694-1.168-1.369-2.336-2.063-3.486a8.547 8.547 0 0 0-.201-.31 349.351 349.351 0 0 0-2.117-3.395c-.511-.767-1.004-1.551-1.534-2.318-.492-.785-1.04-1.551-1.569-2.318a135.597 135.597 0 0 0-3.25-4.544 163.824 163.824 0 0 0-1.661-2.245c-.566-.73-1.131-1.46-1.716-2.19a152.724 152.724 0 0 0-1.661-2.081 275.802 275.802 0 0 0-1.971-2.373 195.068 195.068 0 0 0-1.698-1.989c-.584-.657-1.131-1.296-1.716-1.935-.675-.766-1.369-1.515-2.062-2.263-.621-.657-1.241-1.314-1.88-1.953-.639-.693-1.296-1.35-1.954-2.026a208.163 208.163 0 0 0-2.007-1.989c-.658-.639-1.315-1.259-1.972-1.88a56.034 56.034 0 0 0-1.88-1.752 137.097 137.097 0 0 0-3.432-3.066 136.75 136.75 0 0 0-3.504-2.975 61.22 61.22 0 0 0-1.68-1.351c-.693-.584-1.405-1.131-2.135-1.715a178.984 178.984 0 0 0-4.199-3.139c-.328-.256-.675-.493-.986-.73-.036-.019-.054-.037-.073-.055-.054-.037-.091-.073-.146-.11-.693-.474-1.369-.967-2.062-1.442-.749-.511-1.497-1.003-2.227-1.514a87.813 87.813 0 0 0-1.698-1.132 186.994 186.994 0 0 0-4.746-2.993 180.682 180.682 0 0 0-4.837-2.829 42.947 42.947 0 0 0-1.752-.986c-1.15-.62-2.282-1.241-3.432-1.843-.749-.383-1.497-.767-2.245-1.132a61.514 61.514 0 0 0-2.428-1.204c-.037-.018-.073-.037-.11-.037a128.345 128.345 0 0 0-3.906-1.825 155.047 155.047 0 0 0-3.961-1.734c-.256-.109-.529-.219-.785-.328-.256-.11-.511-.219-.785-.329-.639-.255-1.296-.511-1.935-.766a34.058 34.058 0 0 0-1.752-.676c-.822-.328-1.643-.62-2.446-.93-1.059-.384-2.136-.749-3.213-1.132a193.777 193.777 0 0 0-6.516-2.081 170.688 170.688 0 0 0-28.787-5.913c-2.665-.31-5.33-.566-8.013-.748v342.738l36.8-51.03v-95.801h120.949l.384-2.664c.346-2.866.638-5.749.858-8.651l.164-2.19a55.88 55.88 0 0 0 .128-2.483c.054-.803.091-1.642.109-2.482.037-.857.055-1.715.073-2.573.018-1.15.037-2.336.037-3.504 0-1.168-.019-2.282-.037-3.413Zm-122.665-8.852V230.798c1.095.42 2.19.84 3.249 1.314.036.018.054.018.091.037 1.04.438 2.099.894 3.121 1.369.11.036.219.091.329.146 1.04.456 2.063.949 3.067 1.441.858.402 1.679.822 2.5 1.241.165.092.329.183.493.256.292.146.584.292.876.456.712.365 1.406.749 2.1 1.132.383.201.766.42 1.15.657.638.347 1.259.693 1.88 1.058.255.146.493.292.748.438.913.548 1.826 1.096 2.72 1.661 1.004.639 2.008 1.278 2.975 1.935a58.3 58.3 0 0 1 2.483 1.679c.438.292.858.584 1.259.876.804.566 1.607 1.15 2.392 1.734.73.547 1.46 1.095 2.19 1.661.073.055.146.128.237.182.53.42 1.059.822 1.57 1.26a.242.242 0 0 1 .073.054c.603.475 1.205.949 1.789 1.46a94.913 94.913 0 0 1 2.556 2.191c.073.054.146.127.219.2.091.073.164.128.237.183a49.127 49.127 0 0 1 1.752 1.606c.639.566 1.26 1.15 1.88 1.734.073.055.146.128.22.219a60.243 60.243 0 0 1 2.208 2.154c.749.748 1.497 1.514 2.227 2.281.84.858 1.643 1.752 2.446 2.628.749.803 1.46 1.643 2.191 2.482.62.73 1.259 1.46 1.862 2.209.054.054.109.127.146.182.346.42.711.84 1.04 1.278.164.2.329.401.475.602.2.237.383.475.547.712.493.602.968 1.204 1.424 1.843.201.256.402.511.584.785.037.036.055.073.091.109.238.311.475.639.694.95.256.328.493.657.712.967.201.274.383.547.566.821.055.073.128.164.182.256a40.73 40.73 0 0 1 1.096 1.587c.018 0 .036.037.036.055a89.3 89.3 0 0 1 1.825 2.756 89.4 89.4 0 0 1 1.607 2.574 121.57 121.57 0 0 1 2.172 3.668c.42.712.803 1.405 1.187 2.117a.242.242 0 0 0 .054.073c.493.931.986 1.844 1.442 2.774.292.566.584 1.114.858 1.679l.822 1.698c.274.566.547 1.131.803 1.697.274.566.547 1.15.785 1.716l.766 1.752c.183.438.384.912.585 1.369a123.157 123.157 0 0 1 2.829 7.464c.42 1.205.821 2.41 1.223 3.632.164.53.328 1.077.493 1.625.073.255.164.511.219.766.31 1.022.62 2.063.894 3.103.347 1.241.657 2.519.949 3.778.146.602.293 1.223.42 1.843.311 1.241.566 2.519.803 3.778.256 1.278.475 2.555.676 3.833.109.639.201 1.278.31 1.898.292 1.935.53 3.906.73 5.859.055.584.128 1.168.165 1.752a.434.434 0 0 1 .036.219h-85.336ZM197.399 818.375h18.656c11.043 0 18.764 7.593 18.764 21.299v19.219c0 13.688-7.721 20.952-18.764 20.952h-4.381v19.802h-14.275v-81.272Zm16.794 48.001c2.884 0 6.681-.803 6.681-7.721v-18.871c0-6.79-3.578-7.702-6.681-7.702h-2.538v34.294h2.538Zm26.942 14.619v-43.62c0-11.626 7.722-19.675 18.875-19.675 11.153 0 18.874 8.067 18.874 19.675v43.62c0 11.516-7.831 19.565-18.874 19.565-11.044 0-18.875-8.067-18.875-19.565Zm18.875 5.858c1.953 0 4.6-.584 4.6-5.402v-44.66c0-4.837-2.41-5.403-4.6-5.403-2.191 0-4.728.584-4.728 5.403v44.66c0 4.837 2.647 5.402 4.728 5.402Zm29.589-20.368-5.531 1.734v-10.476l5.531-1.734v-37.634h14.165V851.3l5.531-1.843v10.366l-5.531 1.844v24.292h15.662v13.688h-29.809v-33.144l-.018-.018Zm34.062 14.51v-62.62h14.165v63.186c0 4.836 2.646 5.292 4.727 5.292 1.953 0 4.6-.456 4.6-5.292v-63.186h14.275v62.62c0 11.516-7.831 19.565-18.875 19.565-11.043 0-18.874-8.067-18.874-19.565h-.018Zm46.036-62.62h18.874c11.172 0 18.875 7.593 18.875 21.299v38.912c0 13.688-7.722 21.061-18.875 21.061h-18.874v-81.272Zm17.158 67.675c2.884 0 6.553-.803 6.553-7.592v-38.674c0-6.79-3.45-7.702-6.553-7.702h-2.884v53.987h2.884v-.019Zm28.312-67.675h13.471l10.241 40.408v-40.408h14.274v81.254h-13.471l-10.241-39.13v39.13h-14.274v-81.254Zm46.511 0h14.165v81.254h-14.165v-81.254Zm22.671 0h31.652v13.816h-17.505v19.912h13.361v12.429h-13.361v21.409h17.505v13.688h-31.652v-81.254Zm-285.891-67.584h4.837l5.166 36.94 4.91-36.94h4.162l4.911 36.94 5.165-36.94h4.765l-7.448 49.88h-4.709l-4.765-35.735-4.764 35.735h-4.764l-7.448-49.88h-.018Zm59.599 0h9.2c5.914 0 10.003 3.815 10.003 11.261v12.1c0 6.151-2.483 9.126-6.042 10.477l6.243 16.061h-5.312l-5.513-14.784h-3.76v14.784h-4.837v-49.881l.018-.018Zm8.652 30.279c3.432 0 5.841-1.424 5.841-7.994v-11.042c0-4.819-2.628-6.37-5.841-6.37h-3.833v25.406h3.833Zm37.292 9.071v-28.728c0-6.515 4.108-11.042 10.004-11.042s10.076 4.527 10.076 11.042v28.728c0 6.442-4.162 10.969-10.076 10.969-5.915 0-10.004-4.527-10.004-10.969Zm10.004 6.077c2.884 0 5.311-1.916 5.311-5.95v-29.092c0-4.033-2.354-5.95-5.311-5.95-2.958 0-5.239 1.917-5.239 5.95v29.092c0 4.034 2.354 5.95 5.239 5.95Zm36.945-6.077v-28.728c0-6.515 4.107-11.042 10.003-11.042s10.076 4.527 10.076 11.042v1.625h-4.764v-1.844c0-4.033-2.355-5.95-5.312-5.95-2.957 0-5.239 1.917-5.239 5.95v29.093c0 4.033 2.355 5.949 5.239 5.949s5.312-1.916 5.312-5.949v-2.264h4.764v2.118c0 6.442-4.161 10.969-10.076 10.969-5.914 0-10.003-4.527-10.003-10.969Zm46.493-11.681-3.085 1.058v-3.887l3.085-1.059v-23.781h4.764v22.084l3.158-1.132v3.888l-3.158 1.131v19.036h11.025v4.892h-15.789v-22.23Zm48.153-27.742h5.038l9.273 49.954h-4.837l-1.953-11.188h-10.076l-2.008 11.188h-4.837l9.4-49.954Zm6.918 34.385-4.362-25.186-4.436 25.186h8.798Zm28.349-34.312h4.837l5.166 36.94 4.91-36.94h4.162l4.91 36.94 5.166-36.94h4.764l-7.447 49.88h-4.71l-4.764-35.735-4.764 35.735h-4.764l-7.448-49.88h-.018Z"/>
</svg>
